<svg xmlns="http://www.w3.org/2000/svg" width="100%" viewBox="0 0 1200 300" role="img" aria-label="Contributions, last 12 months: 6061 contributions">
  <rect x="0.5" y="0.5" width="1199" height="299" rx="16" fill="#ffffff" stroke="#d1d9e0"/>
  <g font-family="'Segoe UI', Helvetica, Arial, sans-serif">
    <text x="32" y="39" font-size="14" fill="#59636e">Contributions, last 12 months</text>
    <text x="1168" y="41" text-anchor="end" font-size="20" font-weight="700" fill="#1f2328">6061 contributions</text>
    <g font-size="11" fill="#59636e">
    <line x1="64" y1="194" x2="1152" y2="194" stroke="#eaeef2"/>
    <text x="52" y="198" text-anchor="end">77</text>
    <line x1="64" y1="158" x2="1152" y2="158" stroke="#eaeef2"/>
    <text x="52" y="162" text-anchor="end">154</text>
    <line x1="64" y1="122" x2="1152" y2="122" stroke="#eaeef2"/>
    <text x="52" y="126" text-anchor="end">231</text>
    <line x1="64" y1="86" x2="1152" y2="86" stroke="#eaeef2"/>
    <text x="52" y="90" text-anchor="end">308</text>
    <text x="52" y="234" text-anchor="end">0</text>
    <text x="117.8" y="253" text-anchor="middle">Oct</text>
    <text x="210.46" y="253" text-anchor="middle">Nov</text>
    <text x="300.13" y="253" text-anchor="middle">Dec</text>
    <text x="392.79" y="253" text-anchor="middle">Jan</text>
    <text x="485.45" y="253" text-anchor="middle">Feb</text>
    <text x="569.14" y="253" text-anchor="middle">Mar</text>
    <text x="661.8" y="253" text-anchor="middle">Apr</text>
    <text x="751.47" y="253" text-anchor="middle">May</text>
    <text x="844.13" y="253" text-anchor="middle">Jun</text>
    <text x="933.8" y="253" text-anchor="middle">Jul</text>
    <text x="1026.46" y="253" text-anchor="middle">Aug</text>
    <text x="1119.12" y="253" text-anchor="middle">Sep</text>
    </g>
    <path d="M64 230 C65.49 230 65.49 230 66.99 230 C68.48 230 68.48 230 69.98 230 C71.47 230 71.47 230 72.97 230 C74.46 230 74.46 230 75.96 230 C77.45 230 77.45 230 78.95 230 C80.44 230 80.44 230 81.93 230 C83.43 230 83.43 230 84.92 230 C86.42 230 86.42 230 87.91 230 C89.41 230 89.41 230 90.9 230 C92.4 230 92.4 230 93.89 230 C95.38 230 95.38 230 96.88 230 C98.37 230 98.37 230 99.87 230 C101.36 230 101.36 230 102.86 230 C104.35 230 104.35 230 105.85 230 C107.34 230 107.34 230 108.84 230 C110.33 230 110.33 230 111.82 230 C113.32 230 113.32 230 114.81 230 C116.31 230 116.31 230 117.8 230 C119.3 230 119.3 230 120.79 230 C122.29 230 122.29 230 123.78 230 C125.27 230 125.27 230 126.77 230 C128.26 230 128.26 230 129.76 230 C131.25 230 131.25 230 132.75 230 C134.24 230 134.24 230 135.74 230 C137.23 230 137.23 230 138.73 230 C140.22 230 140.22 230 141.71 230 C143.21 230 143.21 230 144.7 230 C146.2 230 146.2 230 147.69 230 C149.19 230 149.19 230 150.68 230 C152.18 230 152.18 230 153.67 230 C155.16 230 155.16 230 156.66 230 C158.15 230 158.15 230 159.65 230 C161.14 230 161.14 230 162.64 230 C164.13 230 164.13 230 165.63 230 C167.12 230 167.12 230 168.62 230 C170.11 230 170.11 230 171.6 230 C173.1 230 173.1 230 174.59 230 C176.09 230 176.09 230 177.58 230 C179.08 230 179.08 230 180.57 230 C182.07 230 182.07 230 183.56 230 C185.05 230 185.05 230 186.55 230 C188.04 230 188.04 230 189.54 230 C191.03 230 191.03 230 192.53 230 C194.02 230 194.02 230 195.52 230 C197.01 230 197.01 230 198.51 230 C200 230 200 230 201.49 230 C202.99 230 202.99 230 204.48 230 C205.98 230 205.98 230 207.47 230 C208.97 230 208.97 230 210.46 230 C211.96 230 211.96 230 213.45 230 C214.95 230 214.95 230 216.44 230 C217.93 230 217.93 230 219.43 230 C220.92 230 220.92 230 222.42 230 C223.91 230 223.91 230 225.41 230 C226.9 230 226.9 230 228.4 230 C229.89 230 229.89 230 231.38 230 C232.88 230 232.88 230 234.37 230 C235.87 230 235.87 230 237.36 230 C238.86 230 238.86 230 240.35 230 C241.85 230 241.85 230 243.34 230 C244.84 230 244.84 230 246.33 230 C247.82 230 247.82 230 249.32 230 C250.81 230 250.81 230 252.31 230 C253.8 230 253.8 230 255.3 230 C256.79 230 256.79 230 258.29 230 C259.78 230 259.78 230 261.27 230 C262.77 230 262.77 230 264.26 230 C265.76 230 265.76 230 267.25 230 C268.75 230 268.75 230 270.24 230 C271.74 230 271.74 230 273.23 230 C274.73 230 274.73 230 276.22 230 C277.71 230 277.71 230 279.21 230 C280.7 230 280.7 230 282.2 230 C283.69 230 283.69 230 285.19 230 C286.68 230 286.68 230 288.18 230 C289.67 230 289.67 230 291.16 230 C292.66 230 292.66 230 294.15 230 C295.65 230 295.65 230 297.14 230 C298.64 230 298.64 230 300.13 230 C301.63 230 301.63 230 303.12 230 C304.62 230 304.62 230 306.11 230 C307.6 230 307.6 230 309.1 230 C310.59 230 310.59 230 312.09 230 C313.58 230 313.58 230 315.08 230 C316.57 230 316.57 230 318.07 230 C319.56 230 319.56 230 321.05 230 C322.55 230 322.55 230 324.04 230 C325.54 230 325.54 230 327.03 230 C328.53 230 328.53 230 330.02 230 C331.52 230 331.52 230 333.01 230 C334.51 230 334.51 230 336 230 C337.49 230 337.49 230 338.99 230 C340.48 230 340.48 230 341.98 230 C343.47 230 343.47 230 344.97 230 C346.46 230 346.46 230 347.96 230 C349.45 230 349.45 230 350.95 230 C352.44 230 352.44 230 353.93 230 C355.43 230 355.43 230 356.92 230 C358.42 230 358.42 230 359.91 230 C361.41 230 361.41 230 362.9 230 C364.4 230 364.4 230 365.89 230 C367.38 230 367.38 230 368.88 230 C370.37 230 370.37 230 371.87 230 C373.36 230 373.36 230 374.86 230 C376.35 230 376.35 230 377.85 230 C379.34 230 379.34 230 380.84 230 C382.33 230 382.33 230 383.82 230 C385.32 230 385.32 230 386.81 230 C388.31 230 388.31 230 389.8 230 C391.3 230 391.3 230 392.79 230 C394.29 230 394.29 230 395.78 230 C397.27 230 397.27 229.53 398.77 229.53 C400.26 229.53 400.26 230 401.76 230 C403.25 230 403.25 230 404.75 230 C406.24 230 406.24 230 407.74 230 C409.23 230 409.23 230 410.73 230 C412.22 230 412.22 230 413.71 230 C415.21 230 415.21 230 416.7 230 C418.2 230 418.2 230 419.69 230 C421.19 230 421.19 230 422.68 230 C424.18 230 424.18 230 425.67 230 C427.16 230 427.16 230 428.66 230 C430.15 230 430.15 230 431.65 230 C433.14 230 433.14 230 434.64 230 C436.13 230 436.13 230 437.63 230 C439.12 230 439.12 230 440.62 230 C442.11 230 442.11 230 443.6 230 C445.1 230 445.1 230 446.59 230 C448.09 230 448.09 204.75 449.58 204.75 C451.08 204.75 451.08 214.1 452.57 214.1 C454.07 214.1 454.07 184.18 455.56 184.18 C457.05 184.18 457.05 227.19 458.55 227.19 C460.04 227.19 460.04 229.06 461.54 229.06 C463.03 229.06 463.03 156.6 464.53 156.6 C466.02 156.6 466.02 87.4 467.52 87.4 C469.01 87.4 469.01 160.81 470.51 160.81 C472 160.81 472 178.57 473.49 178.57 C474.99 178.57 474.99 143.51 476.48 143.51 C477.98 143.51 477.98 180.44 479.47 180.44 C480.97 180.44 480.97 165.48 482.46 165.48 C483.96 165.48 483.96 179.97 485.45 179.97 C486.95 179.97 486.95 216.91 488.44 216.91 C489.93 216.91 489.93 211.77 491.43 211.77 C492.92 211.77 492.92 230 494.42 230 C495.91 230 495.91 216.91 497.41 216.91 C498.9 216.91 498.9 215.04 500.4 215.04 C501.89 215.04 501.89 204.75 503.38 204.75 C504.88 204.75 504.88 182.31 506.37 182.31 C507.87 182.31 507.87 200.08 509.36 200.08 C510.86 200.08 510.86 160.34 512.35 160.34 C513.85 160.34 513.85 179.97 515.34 179.97 C516.84 179.97 516.84 202.88 518.33 202.88 C519.82 202.88 519.82 226.26 521.32 226.26 C522.81 226.26 522.81 226.26 524.31 226.26 C525.8 226.26 525.8 229.53 527.3 229.53 C528.79 229.53 528.79 230 530.29 230 C531.78 230 531.78 229.06 533.27 229.06 C534.77 229.06 534.77 229.53 536.26 229.53 C537.76 229.53 537.76 211.77 539.25 211.77 C540.75 211.77 540.75 218.31 542.24 218.31 C543.74 218.31 543.74 210.83 545.23 210.83 C546.73 210.83 546.73 227.19 548.22 227.19 C549.71 227.19 549.71 218.78 551.21 218.78 C552.7 218.78 552.7 222.52 554.2 222.52 C555.69 222.52 555.69 194.94 557.19 194.94 C558.68 194.94 558.68 199.61 560.18 199.61 C561.67 199.61 561.67 188.86 563.16 188.86 C564.66 188.86 564.66 201.48 566.15 201.48 C567.65 201.48 567.65 214.1 569.14 214.1 C570.64 214.1 570.64 173.43 572.13 173.43 C573.63 173.43 573.63 225.79 575.12 225.79 C576.62 225.79 576.62 227.66 578.11 227.66 C579.6 227.66 579.6 230 581.1 230 C582.59 230 582.59 209.9 584.09 209.9 C585.58 209.9 585.58 215.97 587.08 215.97 C588.57 215.97 588.57 224.86 590.07 224.86 C591.56 224.86 591.56 177.64 593.05 177.64 C594.55 177.64 594.55 218.31 596.04 218.31 C597.54 218.31 597.54 205.69 599.03 205.69 C600.53 205.69 600.53 200.08 602.02 200.08 C603.52 200.08 603.52 213.64 605.01 213.64 C606.51 213.64 606.51 193.06 608 193.06 C609.49 193.06 609.49 207.09 610.99 207.09 C612.48 207.09 612.48 182.31 613.98 182.31 C615.47 182.31 615.47 226.73 616.97 226.73 C618.46 226.73 618.46 211.3 619.96 211.3 C621.45 211.3 621.45 228.13 622.95 228.13 C624.44 228.13 624.44 227.66 625.93 227.66 C627.43 227.66 627.43 225.79 628.92 225.79 C630.42 225.79 630.42 223.92 631.91 223.92 C633.41 223.92 633.41 222.52 634.9 222.52 C636.4 222.52 636.4 230 637.89 230 C639.38 230 639.38 226.26 640.88 226.26 C642.37 226.26 642.37 227.19 643.87 227.19 C645.36 227.19 645.36 224.39 646.86 224.39 C648.35 224.39 648.35 196.34 649.85 196.34 C651.34 196.34 651.34 208.03 652.84 208.03 C654.33 208.03 654.33 206.16 655.82 206.16 C657.32 206.16 657.32 217.84 658.81 217.84 C660.31 217.84 660.31 226.73 661.8 226.73 C663.3 226.73 663.3 226.26 664.79 226.26 C666.29 226.26 666.29 218.78 667.78 218.78 C669.27 218.78 669.27 230 670.77 230 C672.26 230 672.26 228.6 673.76 228.6 C675.25 228.6 675.25 223.92 676.75 223.92 C678.24 223.92 678.24 204.29 679.74 204.29 C681.23 204.29 681.23 218.78 682.73 218.78 C684.22 218.78 684.22 230 685.71 230 C687.21 230 687.21 230 688.7 230 C690.2 230 690.2 225.79 691.69 225.79 C693.19 225.79 693.19 223.45 694.68 223.45 C696.18 223.45 696.18 223.92 697.67 223.92 C699.16 223.92 699.16 216.91 700.66 216.91 C702.15 216.91 702.15 230 703.65 230 C705.14 230 705.14 228.13 706.64 228.13 C708.13 228.13 708.13 224.86 709.63 224.86 C711.12 224.86 711.12 228.6 712.62 228.6 C714.11 228.6 714.11 226.73 715.6 226.73 C717.1 226.73 717.1 228.6 718.59 228.6 C720.09 228.6 720.09 226.26 721.58 226.26 C723.08 226.26 723.08 225.32 724.57 225.32 C726.07 225.32 726.07 212.23 727.56 212.23 C729.05 212.23 729.05 226.26 730.55 226.26 C732.04 226.26 732.04 226.73 733.54 226.73 C735.03 226.73 735.03 230 736.53 230 C738.02 230 738.02 230 739.52 230 C741.01 230 741.01 230 742.51 230 C744 230 744 230 745.49 230 C746.99 230 746.99 220.65 748.48 220.65 C749.98 220.65 749.98 230 751.47 230 C752.97 230 752.97 230 754.46 230 C755.96 230 755.96 228.13 757.45 228.13 C758.95 228.13 758.95 216.91 760.44 216.91 C761.93 216.91 761.93 230 763.43 230 C764.92 230 764.92 224.39 766.42 224.39 C767.91 224.39 767.91 229.06 769.41 229.06 C770.9 229.06 770.9 230 772.4 230 C773.89 230 773.89 227.19 775.38 227.19 C776.88 227.19 776.88 230 778.37 230 C779.87 230 779.87 229.53 781.36 229.53 C782.86 229.53 782.86 230 784.35 230 C785.85 230 785.85 230 787.34 230 C788.84 230 788.84 224.39 790.33 224.39 C791.82 224.39 791.82 226.26 793.32 226.26 C794.81 226.26 794.81 230 796.31 230 C797.8 230 797.8 230 799.3 230 C800.79 230 800.79 225.79 802.29 225.79 C803.78 225.79 803.78 203.82 805.27 203.82 C806.77 203.82 806.77 217.84 808.26 217.84 C809.76 217.84 809.76 226.26 811.25 226.26 C812.75 226.26 812.75 229.06 814.24 229.06 C815.74 229.06 815.74 230 817.23 230 C818.73 230 818.73 230 820.22 230 C821.71 230 821.71 227.19 823.21 227.19 C824.7 227.19 824.7 226.26 826.2 226.26 C827.69 226.26 827.69 229.06 829.19 229.06 C830.68 229.06 830.68 221.58 832.18 221.58 C833.67 221.58 833.67 230 835.16 230 C836.66 230 836.66 230 838.15 230 C839.65 230 839.65 222.99 841.14 222.99 C842.64 222.99 842.64 228.6 844.13 228.6 C845.63 228.6 845.63 227.19 847.12 227.19 C848.62 227.19 848.62 224.39 850.11 224.39 C851.6 224.39 851.6 230 853.1 230 C854.59 230 854.59 230 856.09 230 C857.58 230 857.58 224.39 859.08 224.39 C860.57 224.39 860.57 230 862.07 230 C863.56 230 863.56 227.19 865.05 227.19 C866.55 227.19 866.55 217.84 868.04 217.84 C869.54 217.84 869.54 217.84 871.03 217.84 C872.53 217.84 872.53 226.26 874.02 226.26 C875.52 226.26 875.52 222.05 877.01 222.05 C878.51 222.05 878.51 230 880 230 C881.49 230 881.49 230 882.99 230 C884.48 230 884.48 226.26 885.98 226.26 C887.47 226.26 887.47 230 888.97 230 C890.46 230 890.46 228.6 891.96 228.6 C893.45 228.6 893.45 227.19 894.95 227.19 C896.44 227.19 896.44 230 897.93 230 C899.43 230 899.43 227.19 900.92 227.19 C902.42 227.19 902.42 225.79 903.91 225.79 C905.41 225.79 905.41 222.52 906.9 222.52 C908.4 222.52 908.4 230 909.89 230 C911.38 230 911.38 227.19 912.88 227.19 C914.37 227.19 914.37 224.39 915.87 224.39 C917.36 224.39 917.36 225.79 918.86 225.79 C920.35 225.79 920.35 230 921.85 230 C923.34 230 923.34 230 924.84 230 C926.33 230 926.33 230 927.82 230 C929.32 230 929.32 221.12 930.81 221.12 C932.31 221.12 932.31 230 933.8 230 C935.3 230 935.3 165.95 936.79 165.95 C938.29 165.95 938.29 196.34 939.78 196.34 C941.27 196.34 941.27 194.94 942.77 194.94 C944.26 194.94 944.26 225.32 945.76 225.32 C947.25 225.32 947.25 203.82 948.75 203.82 C950.24 203.82 950.24 210.36 951.74 210.36 C953.23 210.36 953.23 175.77 954.73 175.77 C956.22 175.77 956.22 225.32 957.71 225.32 C959.21 225.32 959.21 205.22 960.7 205.22 C962.2 205.22 962.2 229.53 963.69 229.53 C965.19 229.53 965.19 227.19 966.68 227.19 C968.18 227.19 968.18 230 969.67 230 C971.16 230 971.16 230 972.66 230 C974.15 230 974.15 229.06 975.65 229.06 C977.14 229.06 977.14 230 978.64 230 C980.13 230 980.13 230 981.63 230 C983.12 230 983.12 230 984.62 230 C986.11 230 986.11 229.53 987.6 229.53 C989.1 229.53 989.1 230 990.59 230 C992.09 230 992.09 230 993.58 230 C995.08 230 995.08 230 996.57 230 C998.07 230 998.07 230 999.56 230 C1001.05 230 1001.05 230 1002.55 230 C1004.04 230 1004.04 230 1005.54 230 C1007.03 230 1007.03 230 1008.53 230 C1010.02 230 1010.02 230 1011.52 230 C1013.01 230 1013.01 230 1014.51 230 C1016 230 1016 226.73 1017.49 226.73 C1018.99 226.73 1018.99 225.32 1020.48 225.32 C1021.98 225.32 1021.98 198.21 1023.47 198.21 C1024.97 198.21 1024.97 191.66 1026.46 191.66 C1027.96 191.66 1027.96 223.45 1029.45 223.45 C1030.95 223.45 1030.95 219.25 1032.44 219.25 C1033.93 219.25 1033.93 169.22 1035.43 169.22 C1036.92 169.22 1036.92 171.09 1038.42 171.09 C1039.91 171.09 1039.91 213.64 1041.41 213.64 C1042.9 213.64 1042.9 229.53 1044.4 229.53 C1045.89 229.53 1045.89 230 1047.38 230 C1048.88 230 1048.88 218.78 1050.37 218.78 C1051.87 218.78 1051.87 216.91 1053.36 216.91 C1054.86 216.91 1054.86 225.32 1056.35 225.32 C1057.85 225.32 1057.85 227.19 1059.34 227.19 C1060.84 227.19 1060.84 222.05 1062.33 222.05 C1063.82 222.05 1063.82 218.31 1065.32 218.31 C1066.81 218.31 1066.81 224.39 1068.31 224.39 C1069.8 224.39 1069.8 219.71 1071.3 219.71 C1072.79 219.71 1072.79 219.71 1074.29 219.71 C1075.78 219.71 1075.78 212.23 1077.27 212.23 C1078.77 212.23 1078.77 225.32 1080.26 225.32 C1081.76 225.32 1081.76 221.12 1083.25 221.12 C1084.75 221.12 1084.75 228.13 1086.24 228.13 C1087.74 228.13 1087.74 225.79 1089.23 225.79 C1090.73 225.79 1090.73 228.13 1092.22 228.13 C1093.71 228.13 1093.71 229.06 1095.21 229.06 C1096.7 229.06 1096.7 219.25 1098.2 219.25 C1099.69 219.25 1099.69 222.05 1101.19 222.05 C1102.68 222.05 1102.68 227.66 1104.18 227.66 C1105.67 227.66 1105.67 214.1 1107.16 214.1 C1108.66 214.1 1108.66 222.05 1110.15 222.05 C1111.65 222.05 1111.65 226.73 1113.14 226.73 C1114.64 226.73 1114.64 221.58 1116.13 221.58 C1117.63 221.58 1117.63 228.6 1119.12 228.6 C1120.62 228.6 1120.62 226.73 1122.11 226.73 C1123.6 226.73 1123.6 226.26 1125.1 226.26 C1126.59 226.26 1126.59 228.13 1128.09 228.13 C1129.58 228.13 1129.58 230 1131.08 230 C1132.57 230 1132.57 223.92 1134.07 223.92 C1135.56 223.92 1135.56 216.44 1137.05 216.44 C1138.55 216.44 1138.55 208.49 1140.04 208.49 C1141.54 208.49 1141.54 216.91 1143.03 216.91 C1144.53 216.91 1144.53 227.66 1146.02 227.66 C1147.52 227.66 1147.52 205.22 1149.01 205.22 C1150.51 205.22 1150.51 227.19 1152 227.19 L1152 230 L64 230 Z" fill="#0969da" fill-opacity="0.15"/>
    <path d="M64 230 C65.49 230 65.49 230 66.99 230 C68.48 230 68.48 230 69.98 230 C71.47 230 71.47 230 72.97 230 C74.46 230 74.46 230 75.96 230 C77.45 230 77.45 230 78.95 230 C80.44 230 80.44 230 81.93 230 C83.43 230 83.43 230 84.92 230 C86.42 230 86.42 230 87.91 230 C89.41 230 89.41 230 90.9 230 C92.4 230 92.4 230 93.89 230 C95.38 230 95.38 230 96.88 230 C98.37 230 98.37 230 99.87 230 C101.36 230 101.36 230 102.86 230 C104.35 230 104.35 230 105.85 230 C107.34 230 107.34 230 108.84 230 C110.33 230 110.33 230 111.82 230 C113.32 230 113.32 230 114.81 230 C116.31 230 116.31 230 117.8 230 C119.3 230 119.3 230 120.79 230 C122.29 230 122.29 230 123.78 230 C125.27 230 125.27 230 126.77 230 C128.26 230 128.26 230 129.76 230 C131.25 230 131.25 230 132.75 230 C134.24 230 134.24 230 135.74 230 C137.23 230 137.23 230 138.73 230 C140.22 230 140.22 230 141.71 230 C143.21 230 143.21 230 144.7 230 C146.2 230 146.2 230 147.69 230 C149.19 230 149.19 230 150.68 230 C152.18 230 152.18 230 153.67 230 C155.16 230 155.16 230 156.66 230 C158.15 230 158.15 230 159.65 230 C161.14 230 161.14 230 162.64 230 C164.13 230 164.13 230 165.63 230 C167.12 230 167.12 230 168.62 230 C170.11 230 170.11 230 171.6 230 C173.1 230 173.1 230 174.59 230 C176.09 230 176.09 230 177.58 230 C179.08 230 179.08 230 180.57 230 C182.07 230 182.07 230 183.56 230 C185.05 230 185.05 230 186.55 230 C188.04 230 188.04 230 189.54 230 C191.03 230 191.03 230 192.53 230 C194.02 230 194.02 230 195.52 230 C197.01 230 197.01 230 198.51 230 C200 230 200 230 201.49 230 C202.99 230 202.99 230 204.48 230 C205.98 230 205.98 230 207.47 230 C208.97 230 208.97 230 210.46 230 C211.96 230 211.96 230 213.45 230 C214.95 230 214.95 230 216.44 230 C217.93 230 217.93 230 219.43 230 C220.92 230 220.92 230 222.42 230 C223.91 230 223.91 230 225.41 230 C226.9 230 226.9 230 228.4 230 C229.89 230 229.89 230 231.38 230 C232.88 230 232.88 230 234.37 230 C235.87 230 235.87 230 237.36 230 C238.86 230 238.86 230 240.35 230 C241.85 230 241.85 230 243.34 230 C244.84 230 244.84 230 246.33 230 C247.82 230 247.82 230 249.32 230 C250.81 230 250.81 230 252.31 230 C253.8 230 253.8 230 255.3 230 C256.79 230 256.79 230 258.29 230 C259.78 230 259.78 230 261.27 230 C262.77 230 262.77 230 264.26 230 C265.76 230 265.76 230 267.25 230 C268.75 230 268.75 230 270.24 230 C271.74 230 271.74 230 273.23 230 C274.73 230 274.73 230 276.22 230 C277.71 230 277.71 230 279.21 230 C280.7 230 280.7 230 282.2 230 C283.69 230 283.69 230 285.19 230 C286.68 230 286.68 230 288.18 230 C289.67 230 289.67 230 291.16 230 C292.66 230 292.66 230 294.15 230 C295.65 230 295.65 230 297.14 230 C298.64 230 298.64 230 300.13 230 C301.63 230 301.63 230 303.12 230 C304.62 230 304.62 230 306.11 230 C307.6 230 307.6 230 309.1 230 C310.59 230 310.59 230 312.09 230 C313.58 230 313.58 230 315.08 230 C316.57 230 316.57 230 318.07 230 C319.56 230 319.56 230 321.05 230 C322.55 230 322.55 230 324.04 230 C325.54 230 325.54 230 327.03 230 C328.53 230 328.53 230 330.02 230 C331.52 230 331.52 230 333.01 230 C334.51 230 334.51 230 336 230 C337.49 230 337.49 230 338.99 230 C340.48 230 340.48 230 341.98 230 C343.47 230 343.47 230 344.97 230 C346.46 230 346.46 230 347.96 230 C349.45 230 349.45 230 350.95 230 C352.44 230 352.44 230 353.93 230 C355.43 230 355.43 230 356.92 230 C358.42 230 358.42 230 359.91 230 C361.41 230 361.41 230 362.9 230 C364.4 230 364.4 230 365.89 230 C367.38 230 367.38 230 368.88 230 C370.37 230 370.37 230 371.87 230 C373.36 230 373.36 230 374.86 230 C376.35 230 376.35 230 377.85 230 C379.34 230 379.34 230 380.84 230 C382.33 230 382.33 230 383.82 230 C385.32 230 385.32 230 386.81 230 C388.31 230 388.31 230 389.8 230 C391.3 230 391.3 230 392.79 230 C394.29 230 394.29 230 395.78 230 C397.27 230 397.27 229.53 398.77 229.53 C400.26 229.53 400.26 230 401.76 230 C403.25 230 403.25 230 404.75 230 C406.24 230 406.24 230 407.74 230 C409.23 230 409.23 230 410.73 230 C412.22 230 412.22 230 413.71 230 C415.21 230 415.21 230 416.7 230 C418.2 230 418.2 230 419.69 230 C421.19 230 421.19 230 422.68 230 C424.18 230 424.18 230 425.67 230 C427.16 230 427.16 230 428.66 230 C430.15 230 430.15 230 431.65 230 C433.14 230 433.14 230 434.64 230 C436.13 230 436.13 230 437.63 230 C439.12 230 439.12 230 440.62 230 C442.11 230 442.11 230 443.6 230 C445.1 230 445.1 230 446.59 230 C448.09 230 448.09 204.75 449.58 204.75 C451.08 204.75 451.08 214.1 452.57 214.1 C454.07 214.1 454.07 184.18 455.56 184.18 C457.05 184.18 457.05 227.19 458.55 227.19 C460.04 227.19 460.04 229.06 461.54 229.06 C463.03 229.06 463.03 156.6 464.53 156.6 C466.02 156.6 466.02 87.4 467.52 87.4 C469.01 87.4 469.01 160.81 470.51 160.81 C472 160.81 472 178.57 473.49 178.57 C474.99 178.57 474.99 143.51 476.48 143.51 C477.98 143.51 477.98 180.44 479.47 180.44 C480.97 180.44 480.97 165.48 482.46 165.48 C483.96 165.48 483.96 179.97 485.45 179.97 C486.95 179.97 486.95 216.91 488.44 216.91 C489.93 216.91 489.93 211.77 491.43 211.77 C492.92 211.77 492.92 230 494.42 230 C495.91 230 495.91 216.91 497.41 216.91 C498.9 216.91 498.9 215.04 500.4 215.04 C501.89 215.04 501.89 204.75 503.38 204.75 C504.88 204.75 504.88 182.31 506.37 182.31 C507.87 182.31 507.87 200.08 509.36 200.08 C510.86 200.08 510.86 160.34 512.35 160.34 C513.85 160.34 513.85 179.97 515.34 179.97 C516.84 179.97 516.84 202.88 518.33 202.88 C519.82 202.88 519.82 226.26 521.32 226.26 C522.81 226.26 522.81 226.26 524.31 226.26 C525.8 226.26 525.8 229.53 527.3 229.53 C528.79 229.53 528.79 230 530.29 230 C531.78 230 531.78 229.06 533.27 229.06 C534.77 229.06 534.77 229.53 536.26 229.53 C537.76 229.53 537.76 211.77 539.25 211.77 C540.75 211.77 540.75 218.31 542.24 218.31 C543.74 218.31 543.74 210.83 545.23 210.83 C546.73 210.83 546.73 227.19 548.22 227.19 C549.71 227.19 549.71 218.78 551.21 218.78 C552.7 218.78 552.7 222.52 554.2 222.52 C555.69 222.52 555.69 194.94 557.19 194.94 C558.68 194.94 558.68 199.61 560.18 199.61 C561.67 199.61 561.67 188.86 563.16 188.86 C564.66 188.86 564.66 201.48 566.15 201.48 C567.65 201.48 567.65 214.1 569.14 214.1 C570.64 214.1 570.64 173.43 572.13 173.43 C573.63 173.43 573.63 225.79 575.12 225.79 C576.62 225.79 576.62 227.66 578.11 227.66 C579.6 227.66 579.6 230 581.1 230 C582.59 230 582.59 209.9 584.09 209.9 C585.58 209.9 585.58 215.97 587.08 215.97 C588.57 215.97 588.57 224.86 590.07 224.86 C591.56 224.86 591.56 177.64 593.05 177.64 C594.55 177.64 594.55 218.31 596.04 218.31 C597.54 218.31 597.54 205.69 599.03 205.69 C600.53 205.69 600.53 200.08 602.02 200.08 C603.52 200.08 603.52 213.64 605.01 213.64 C606.51 213.64 606.51 193.06 608 193.06 C609.49 193.06 609.49 207.09 610.99 207.09 C612.48 207.09 612.48 182.31 613.98 182.31 C615.47 182.31 615.47 226.73 616.97 226.73 C618.46 226.73 618.46 211.3 619.96 211.3 C621.45 211.3 621.45 228.13 622.95 228.13 C624.44 228.13 624.44 227.66 625.93 227.66 C627.43 227.66 627.43 225.79 628.92 225.79 C630.42 225.79 630.42 223.92 631.91 223.92 C633.41 223.92 633.41 222.52 634.9 222.52 C636.4 222.52 636.4 230 637.89 230 C639.38 230 639.38 226.26 640.88 226.26 C642.37 226.26 642.37 227.19 643.87 227.19 C645.36 227.19 645.36 224.39 646.86 224.39 C648.35 224.39 648.35 196.34 649.85 196.34 C651.34 196.34 651.34 208.03 652.84 208.03 C654.33 208.03 654.33 206.16 655.82 206.16 C657.32 206.16 657.32 217.84 658.81 217.84 C660.31 217.84 660.31 226.73 661.8 226.73 C663.3 226.73 663.3 226.26 664.79 226.26 C666.29 226.26 666.29 218.78 667.78 218.78 C669.27 218.78 669.27 230 670.77 230 C672.26 230 672.26 228.6 673.76 228.6 C675.25 228.6 675.25 223.92 676.75 223.92 C678.24 223.92 678.24 204.29 679.74 204.29 C681.23 204.29 681.23 218.78 682.73 218.78 C684.22 218.78 684.22 230 685.71 230 C687.21 230 687.21 230 688.7 230 C690.2 230 690.2 225.79 691.69 225.79 C693.19 225.79 693.19 223.45 694.68 223.45 C696.18 223.45 696.18 223.92 697.67 223.92 C699.16 223.92 699.16 216.91 700.66 216.91 C702.15 216.91 702.15 230 703.65 230 C705.14 230 705.14 228.13 706.64 228.13 C708.13 228.13 708.13 224.86 709.63 224.86 C711.12 224.86 711.12 228.6 712.62 228.6 C714.11 228.6 714.11 226.73 715.6 226.73 C717.1 226.73 717.1 228.6 718.59 228.6 C720.09 228.6 720.09 226.26 721.58 226.26 C723.08 226.26 723.08 225.32 724.57 225.32 C726.07 225.32 726.07 212.23 727.56 212.23 C729.05 212.23 729.05 226.26 730.55 226.26 C732.04 226.26 732.04 226.73 733.54 226.73 C735.03 226.73 735.03 230 736.53 230 C738.02 230 738.02 230 739.52 230 C741.01 230 741.01 230 742.51 230 C744 230 744 230 745.49 230 C746.99 230 746.99 220.65 748.48 220.65 C749.98 220.65 749.98 230 751.47 230 C752.97 230 752.97 230 754.46 230 C755.96 230 755.96 228.13 757.45 228.13 C758.95 228.13 758.95 216.91 760.44 216.91 C761.93 216.91 761.93 230 763.43 230 C764.92 230 764.92 224.39 766.42 224.39 C767.91 224.39 767.91 229.06 769.41 229.06 C770.9 229.06 770.9 230 772.4 230 C773.89 230 773.89 227.19 775.38 227.19 C776.88 227.19 776.88 230 778.37 230 C779.87 230 779.87 229.53 781.36 229.53 C782.86 229.53 782.86 230 784.35 230 C785.85 230 785.85 230 787.34 230 C788.84 230 788.84 224.39 790.33 224.39 C791.82 224.39 791.82 226.26 793.32 226.26 C794.81 226.26 794.81 230 796.31 230 C797.8 230 797.8 230 799.3 230 C800.79 230 800.79 225.79 802.29 225.79 C803.78 225.79 803.78 203.82 805.27 203.82 C806.77 203.82 806.77 217.84 808.26 217.84 C809.76 217.84 809.76 226.26 811.25 226.26 C812.75 226.26 812.75 229.06 814.24 229.06 C815.74 229.06 815.74 230 817.23 230 C818.73 230 818.73 230 820.22 230 C821.71 230 821.71 227.19 823.21 227.19 C824.7 227.19 824.7 226.26 826.2 226.26 C827.69 226.26 827.69 229.06 829.19 229.06 C830.68 229.06 830.68 221.58 832.18 221.58 C833.67 221.58 833.67 230 835.16 230 C836.66 230 836.66 230 838.15 230 C839.65 230 839.65 222.99 841.14 222.99 C842.64 222.99 842.64 228.6 844.13 228.6 C845.63 228.6 845.63 227.19 847.12 227.19 C848.62 227.19 848.62 224.39 850.11 224.39 C851.6 224.39 851.6 230 853.1 230 C854.59 230 854.59 230 856.09 230 C857.58 230 857.58 224.39 859.08 224.39 C860.57 224.39 860.57 230 862.07 230 C863.56 230 863.56 227.19 865.05 227.19 C866.55 227.19 866.55 217.84 868.04 217.84 C869.54 217.84 869.54 217.84 871.03 217.84 C872.53 217.84 872.53 226.26 874.02 226.26 C875.52 226.26 875.52 222.05 877.01 222.05 C878.51 222.05 878.51 230 880 230 C881.49 230 881.49 230 882.99 230 C884.48 230 884.48 226.26 885.98 226.26 C887.47 226.26 887.47 230 888.97 230 C890.46 230 890.46 228.6 891.96 228.6 C893.45 228.6 893.45 227.19 894.95 227.19 C896.44 227.19 896.44 230 897.93 230 C899.43 230 899.43 227.19 900.92 227.19 C902.42 227.19 902.42 225.79 903.91 225.79 C905.41 225.79 905.41 222.52 906.9 222.52 C908.4 222.52 908.4 230 909.89 230 C911.38 230 911.38 227.19 912.88 227.19 C914.37 227.19 914.37 224.39 915.87 224.39 C917.36 224.39 917.36 225.79 918.86 225.79 C920.35 225.79 920.35 230 921.85 230 C923.34 230 923.34 230 924.84 230 C926.33 230 926.33 230 927.82 230 C929.32 230 929.32 221.12 930.81 221.12 C932.31 221.12 932.31 230 933.8 230 C935.3 230 935.3 165.95 936.79 165.95 C938.29 165.95 938.29 196.34 939.78 196.34 C941.27 196.34 941.27 194.94 942.77 194.94 C944.26 194.94 944.26 225.32 945.76 225.32 C947.25 225.32 947.25 203.82 948.75 203.82 C950.24 203.82 950.24 210.36 951.74 210.36 C953.23 210.36 953.23 175.77 954.73 175.77 C956.22 175.77 956.22 225.32 957.71 225.32 C959.21 225.32 959.21 205.22 960.7 205.22 C962.2 205.22 962.2 229.53 963.69 229.53 C965.19 229.53 965.19 227.19 966.68 227.19 C968.18 227.19 968.18 230 969.67 230 C971.16 230 971.16 230 972.66 230 C974.15 230 974.15 229.06 975.65 229.06 C977.14 229.06 977.14 230 978.64 230 C980.13 230 980.13 230 981.63 230 C983.12 230 983.12 230 984.62 230 C986.11 230 986.11 229.53 987.6 229.53 C989.1 229.53 989.1 230 990.59 230 C992.09 230 992.09 230 993.58 230 C995.08 230 995.08 230 996.57 230 C998.07 230 998.07 230 999.56 230 C1001.05 230 1001.05 230 1002.55 230 C1004.04 230 1004.04 230 1005.54 230 C1007.03 230 1007.03 230 1008.53 230 C1010.02 230 1010.02 230 1011.52 230 C1013.01 230 1013.01 230 1014.51 230 C1016 230 1016 226.73 1017.49 226.73 C1018.99 226.73 1018.99 225.32 1020.48 225.32 C1021.98 225.32 1021.98 198.21 1023.47 198.21 C1024.97 198.21 1024.97 191.66 1026.46 191.66 C1027.96 191.66 1027.96 223.45 1029.45 223.45 C1030.95 223.45 1030.95 219.25 1032.44 219.25 C1033.93 219.25 1033.93 169.22 1035.43 169.22 C1036.92 169.22 1036.92 171.09 1038.42 171.09 C1039.91 171.09 1039.91 213.64 1041.41 213.64 C1042.9 213.64 1042.9 229.53 1044.4 229.53 C1045.89 229.53 1045.89 230 1047.38 230 C1048.88 230 1048.88 218.78 1050.37 218.78 C1051.87 218.78 1051.87 216.91 1053.36 216.91 C1054.86 216.91 1054.86 225.32 1056.35 225.32 C1057.85 225.32 1057.85 227.19 1059.34 227.19 C1060.84 227.19 1060.84 222.05 1062.33 222.05 C1063.82 222.05 1063.82 218.31 1065.32 218.31 C1066.81 218.31 1066.81 224.39 1068.31 224.39 C1069.8 224.39 1069.8 219.71 1071.3 219.71 C1072.79 219.71 1072.79 219.71 1074.29 219.71 C1075.78 219.71 1075.78 212.23 1077.27 212.23 C1078.77 212.23 1078.77 225.32 1080.26 225.32 C1081.76 225.32 1081.76 221.12 1083.25 221.12 C1084.75 221.12 1084.75 228.13 1086.24 228.13 C1087.74 228.13 1087.74 225.79 1089.23 225.79 C1090.73 225.79 1090.73 228.13 1092.22 228.13 C1093.71 228.13 1093.71 229.06 1095.21 229.06 C1096.7 229.06 1096.7 219.25 1098.2 219.25 C1099.69 219.25 1099.69 222.05 1101.19 222.05 C1102.68 222.05 1102.68 227.66 1104.18 227.66 C1105.67 227.66 1105.67 214.1 1107.16 214.1 C1108.66 214.1 1108.66 222.05 1110.15 222.05 C1111.65 222.05 1111.65 226.73 1113.14 226.73 C1114.64 226.73 1114.64 221.58 1116.13 221.58 C1117.63 221.58 1117.63 228.6 1119.12 228.6 C1120.62 228.6 1120.62 226.73 1122.11 226.73 C1123.6 226.73 1123.6 226.26 1125.1 226.26 C1126.59 226.26 1126.59 228.13 1128.09 228.13 C1129.58 228.13 1129.58 230 1131.08 230 C1132.57 230 1132.57 223.92 1134.07 223.92 C1135.56 223.92 1135.56 216.44 1137.05 216.44 C1138.55 216.44 1138.55 208.49 1140.04 208.49 C1141.54 208.49 1141.54 216.91 1143.03 216.91 C1144.53 216.91 1144.53 227.66 1146.02 227.66 C1147.52 227.66 1147.52 205.22 1149.01 205.22 C1150.51 205.22 1150.51 227.19 1152 227.19" fill="none" stroke="#0969da" stroke-width="2" stroke-linecap="round" stroke-linejoin="round"/>
    <circle cx="467.52" cy="87.4" r="3.5" fill="#0969da" stroke="#ffffff" stroke-width="1.5"/>
    <text x="475.52" y="75.4" text-anchor="start" font-size="11" fill="#1f2328">305 · 2026-01-26</text>
    <text x="32" y="282" font-size="11" fill="#59636e">updated 2026-09-12</text>
  </g>
</svg>
